<svg width="26" height="34" viewBox="0 0 26 34" fill="none" xmlns="http://www.w3.org/2000/svg">
<g filter="url(#filter0_d_17_597)">
<path d="M7.31937 11.5875C8.20906 11.5875 9.09819 11.5818 9.98789 11.5915C10.1912 11.5938 10.3962 11.6212 10.5995 11.6629C10.7343 11.6903 10.869 11.7251 11.0049 11.7508C11.1374 11.7754 11.2636 11.8371 11.3915 11.8845C11.6017 11.9621 11.8061 12.0535 12.0014 12.1631C12.1322 12.2368 12.2561 12.3247 12.3789 12.4115C12.5399 12.5252 12.6878 12.6537 12.8323 12.7879C12.9768 12.9221 13.1127 13.0642 13.2343 13.219C13.3245 13.3332 13.4102 13.4514 13.4901 13.5731C13.5821 13.7124 13.6683 13.854 13.7311 14.0122C13.7859 14.1498 13.859 14.2812 13.9099 14.4216C13.9453 14.5204 13.9881 14.6164 14.0149 14.7192C14.0446 14.8328 14.0932 14.9419 14.1371 15.0515C14.1885 15.1811 14.2399 15.3108 14.2982 15.437C14.3473 15.5426 14.401 15.6465 14.4621 15.7453C14.5986 15.9675 14.743 16.1839 14.9183 16.3786C15.0805 16.5591 15.2467 16.7327 15.4329 16.8909C15.5893 17.0239 15.7566 17.1398 15.9268 17.2495C16.0393 17.322 16.1552 17.3928 16.2797 17.4488C16.4208 17.5122 16.5578 17.5847 16.7057 17.6332C16.8062 17.6663 16.9113 17.6955 17.005 17.7372C17.1295 17.792 17.2448 17.8098 17.3859 17.8377C17.3961 17.8439 17.4104 17.8439 17.423 17.8451C17.7011 17.8679 17.9752 17.9245 18.2573 17.9188C18.6844 17.9102 19.1116 17.913 19.5387 17.9193C19.8014 17.9233 20.0624 17.9656 20.3165 18.0261C20.5718 18.0866 20.8224 18.1672 21.0657 18.2768C21.2764 18.3716 21.4763 18.4847 21.6779 18.5937C21.9132 18.7211 22.1193 18.8935 22.3157 19.0757C22.4853 19.2333 22.6435 19.4012 22.7857 19.5828C22.9068 19.7376 23.0176 19.8992 23.1186 20.0693C23.2083 20.2207 23.2928 20.3754 23.3693 20.5325C23.4116 20.6198 23.4384 20.7203 23.4715 20.8134C23.5309 20.9813 23.5715 21.1538 23.6252 21.3228C23.6891 21.5227 23.6988 21.7294 23.7108 21.9344C23.7354 22.3358 23.72 22.7373 23.6691 23.1364C23.6531 23.2649 23.6075 23.3849 23.5709 23.5071C23.5327 23.6355 23.4841 23.7612 23.4419 23.8891C23.4036 24.0027 23.3448 24.1095 23.2894 24.2169C23.2009 24.3882 23.1221 24.5658 23.0033 24.7194C22.8445 24.925 22.7126 25.1505 22.5287 25.3379C22.2763 25.5954 21.9897 25.8113 21.6922 26.0111C21.5345 26.1173 21.3649 26.2098 21.1913 26.2881C21.1085 26.3252 21.0189 26.3577 20.9298 26.3863C20.7465 26.4451 20.562 26.5017 20.3787 26.5622C20.3359 26.5765 20.2936 26.5827 20.2514 26.5942C19.9562 26.6741 19.6483 26.7142 19.3506 26.7142C19.167 26.7142 19.0387 26.701 18.8637 26.701C18.6888 26.701 18.5251 26.6867 18.3641 26.6461C18.1402 26.5902 17.9078 26.5622 17.6965 26.456C17.6326 26.424 17.5566 26.408 17.4864 26.3846C17.3413 26.3366 17.2088 26.2647 17.0758 26.1933C16.8896 26.0928 16.708 25.9843 16.5367 25.8592C16.3682 25.7359 16.2118 25.5988 16.061 25.4561C15.8709 25.2762 15.6876 25.0872 15.5454 24.8667C15.4192 24.6714 15.3021 24.4699 15.1993 24.2597C15.1142 24.0861 15.0251 23.9131 14.9509 23.7349C14.9155 23.6504 14.9029 23.5545 14.8704 23.4654C14.8036 23.2849 14.7385 23.105 14.6614 22.928C14.5746 22.7281 14.4684 22.542 14.357 22.357C14.2679 22.2085 14.1566 22.0777 14.0475 21.9441C13.8905 21.7516 13.7203 21.5712 13.533 21.4079C13.4559 21.3411 13.3811 21.2668 13.2931 21.2177C13.1304 21.1275 12.9985 20.9939 12.8323 20.9099C12.7164 20.8511 12.5993 20.7946 12.4834 20.7369C12.3332 20.6627 12.1727 20.6153 12.022 20.5427C11.9506 20.5085 11.8649 20.4959 11.789 20.4811C11.6348 20.4508 11.4835 20.4063 11.3236 20.3914C10.0924 20.2772 8.85949 20.3657 7.62773 20.3537C6.55016 20.3434 5.47316 20.3737 4.39558 20.3531C4.24939 20.3503 4.09921 20.352 3.95759 20.32C3.79541 20.2835 3.63095 20.2498 3.47048 20.2007C3.30887 20.151 3.15069 20.0916 2.99023 20.0379C2.92513 20.0162 2.8566 19.9877 2.80064 19.938C2.73954 19.8843 2.65274 19.8809 2.58135 19.8398C2.50027 19.7935 2.42146 19.7421 2.34208 19.6942C2.00002 19.4886 1.69737 19.2305 1.42783 18.9375C1.20855 18.6994 1.0064 18.4441 0.85164 18.1592C0.728293 17.9319 0.622078 17.6943 0.535278 17.4476C0.478173 17.2855 0.441626 17.1181 0.381094 16.9577C0.376526 16.9457 0.374242 16.9331 0.371957 16.9206C0.291439 16.4523 0.247468 15.9789 0.301718 15.5072C0.328557 15.2714 0.359394 15.0315 0.427349 14.8008C0.504441 14.5387 0.596951 14.2817 0.719156 14.0379C0.829369 13.8186 0.972132 13.6182 1.1029 13.4109C1.24567 13.1842 1.4364 13.0066 1.61742 12.8193C1.83099 12.5983 2.07026 12.4018 2.33352 12.2431C2.47 12.1608 2.60705 12.0746 2.76181 12.0215C2.91371 11.9695 3.05704 11.8936 3.20437 11.8302C3.26091 11.8056 3.32201 11.776 3.37797 11.7685C3.52873 11.7485 3.6732 11.7006 3.82111 11.6703C4.05238 11.6235 4.28594 11.6252 4.51722 11.5904C4.54863 11.5858 4.5806 11.5869 4.61258 11.5869C5.51484 11.5869 6.41711 11.5875 7.31937 11.5875Z" fill="white"/>
<path d="M7.24285 0.00316047C8.18679 0.00316047 9.13017 0.00544467 10.0741 0.000876263C10.3082 -0.00026584 10.5372 0.0437051 10.7605 0.0911024C11.1054 0.164197 11.4446 0.276694 11.7604 0.438302C12.0106 0.566217 12.255 0.702698 12.4788 0.879724C12.7084 1.06132 12.9151 1.26233 13.1144 1.47419C13.3245 1.69804 13.4913 1.95387 13.6512 2.21256C13.7488 2.37074 13.8077 2.5529 13.8773 2.72708C13.9413 2.88583 13.9972 3.04744 14.0561 3.2079C14.1149 3.36894 14.1651 3.53397 14.2319 3.69158C14.3359 3.93542 14.4678 4.16384 14.6163 4.38484C14.7722 4.61783 14.9492 4.82969 15.1445 5.02955C15.3032 5.19287 15.4751 5.34021 15.6573 5.47497C15.8674 5.6303 16.093 5.76621 16.3288 5.87757C16.4739 5.94609 16.6235 6.00834 16.776 6.06373C16.9616 6.13111 17.1517 6.17794 17.3413 6.22305C17.5155 6.26417 17.6971 6.28472 17.877 6.30528C18.3281 6.35668 18.7798 6.32755 19.2309 6.32584C19.5793 6.32413 19.9248 6.34754 20.2628 6.41435C20.5266 6.46632 20.7899 6.54113 21.0354 6.66562C21.1337 6.7153 21.2399 6.75127 21.3387 6.80381C21.5214 6.90146 21.7076 6.99283 21.876 7.11332C22.105 7.27778 22.3163 7.46452 22.5082 7.67124C22.643 7.81629 22.7692 7.96761 22.8908 8.12465C23.0929 8.38562 23.2363 8.67686 23.3779 8.96867C23.4464 9.11029 23.4978 9.26561 23.5338 9.42494C23.5561 9.52316 23.5926 9.62252 23.6223 9.72131C23.6954 9.96172 23.7051 10.2096 23.7142 10.4568C23.7274 10.804 23.7291 11.1535 23.6663 11.4961C23.6354 11.6652 23.5995 11.8359 23.5378 12.0004C23.5058 12.086 23.4761 12.1757 23.4453 12.2631C23.3962 12.4035 23.3368 12.5417 23.2608 12.6719C23.2009 12.7742 23.1483 12.8809 23.0975 12.9883C23.0541 13.0802 22.985 13.1539 22.9268 13.2338C22.7817 13.4349 22.611 13.6153 22.4414 13.7975C22.2643 13.9865 22.0599 14.1373 21.8566 14.2926C21.6499 14.4508 21.4192 14.5735 21.1862 14.6826C20.9664 14.786 20.7328 14.8653 20.4958 14.931C20.1475 15.0275 19.7928 15.0464 19.4359 15.0726C19.2498 15.0863 19.0501 15.0995 18.878 15.0995C18.6289 15.1023 18.4343 15.0572 18.2145 15.0064C18.0488 14.9681 17.8827 14.9344 17.7228 14.8779C17.5589 14.8197 17.395 14.7597 17.2357 14.6895C17.134 14.6443 17.0404 14.5815 16.9456 14.5227C16.8131 14.4399 16.6818 14.3548 16.5533 14.2663C16.3191 14.1047 16.1164 13.9111 15.9148 13.7135C15.7338 13.5354 15.5813 13.3349 15.446 13.1225C15.3558 12.9809 15.2855 12.8273 15.2056 12.6788C15.1353 12.548 15.0822 12.4093 15.0194 12.2751C14.988 12.2077 14.9657 12.1351 14.9418 12.0678C14.8607 11.8388 14.791 11.6046 14.6882 11.3848C14.6168 11.2312 14.5426 11.0787 14.4461 10.9348C14.3382 10.7749 14.2594 10.5933 14.1332 10.4437C13.9527 10.2295 13.766 10.0223 13.5604 9.83095C13.4051 9.68648 13.232 9.56313 13.0567 9.44778C12.9111 9.35241 12.7558 9.2679 12.597 9.1908C12.3926 9.09144 12.1784 9.01721 11.9672 8.93726C11.8706 8.90071 11.7661 8.87387 11.6628 8.85046C11.3835 8.78764 11.0997 8.75167 10.8171 8.74539C10.2146 8.73168 9.61214 8.7431 9.00968 8.74481C8.40379 8.74653 7.79791 8.73339 7.19259 8.75509C6.30118 8.78707 5.4092 8.77508 4.51779 8.77565C4.2671 8.77565 4.01983 8.72026 3.772 8.68086C3.53958 8.64431 3.31972 8.57064 3.10387 8.48727C2.84746 8.38848 2.5962 8.27541 2.36664 8.11837C2.28041 8.05955 2.1879 8.00873 2.10338 7.94648C1.80701 7.72834 1.54261 7.4748 1.29363 7.20526C1.19884 7.10247 1.13431 6.97284 1.04865 6.86149C0.948719 6.73129 0.874482 6.5851 0.788825 6.44633C0.706593 6.31385 0.660338 6.15909 0.598094 6.01405C0.546699 5.89355 0.517004 5.76507 0.470749 5.64458C0.382807 5.41501 0.367389 5.17232 0.310284 4.93819C0.293723 4.8708 0.291439 4.79942 0.290297 4.72918C0.286871 4.52189 0.28116 4.3146 0.287442 4.10731C0.296008 3.83777 0.349115 3.57509 0.405649 3.31126C0.430205 3.19762 0.469607 3.08912 0.496447 2.97662C0.53071 2.83101 0.602662 2.69281 0.667191 2.55519C0.744854 2.38844 0.826514 2.22341 0.92759 2.06922C1.1246 1.76942 1.33875 1.48504 1.60143 1.23777C1.72935 1.11728 1.85669 0.997932 1.99431 0.888861C2.12908 0.782074 2.27356 0.690135 2.42089 0.60048C2.5705 0.509683 2.72355 0.426309 2.88573 0.361781C3.04276 0.298965 3.20266 0.244715 3.36312 0.191607C3.56699 0.124794 3.77599 0.0853919 3.98785 0.0494156C4.13576 0.0242894 4.28137 0.00373152 4.42985 0.00373152C5.36694 0.00144731 6.30461 0.00258942 7.2417 0.00258942L7.24285 0.00316047Z" fill="white"/>
<path d="M7.09894 23.1998C8.24675 23.1998 9.13303 23.1993 10.0193 23.1998C10.2266 23.1998 10.4282 23.2472 10.6326 23.2746C10.7685 23.2929 10.8987 23.33 11.0306 23.3586C11.1751 23.3894 11.319 23.4345 11.4532 23.5019C11.5623 23.5567 11.6748 23.6019 11.7878 23.647C11.8958 23.6904 12.0026 23.7469 12.1048 23.8103C12.255 23.9034 12.3977 24.0044 12.5399 24.1072C12.7027 24.2249 12.8626 24.3437 12.9979 24.4973C13.1618 24.684 13.3308 24.8667 13.4776 25.0666C13.5695 25.1922 13.6432 25.3321 13.718 25.4698C13.7905 25.6028 13.8545 25.7404 13.9207 25.8769C13.9516 25.9409 13.9693 26.0105 13.9927 26.0768C14.0618 26.2715 14.1177 26.472 14.1628 26.6735C14.2428 27.031 14.2999 27.3936 14.2673 27.7603C14.2405 28.0686 14.2142 28.3798 14.124 28.6779C14.0424 28.9469 13.9493 29.2119 13.8362 29.4711C13.6963 29.7938 13.5016 30.0816 13.2851 30.3483C13.079 30.6024 12.8449 30.8376 12.5742 31.0341C12.4297 31.1392 12.2829 31.242 12.1373 31.3447C11.9934 31.4458 11.825 31.5121 11.6651 31.5886C11.4087 31.7114 11.1351 31.7902 10.8616 31.8604C10.7537 31.8878 10.6423 31.9181 10.5292 31.9284C9.78231 31.9963 9.03366 31.9826 8.28559 31.9849C7.14405 31.9883 6.00309 31.9923 4.86156 31.9952C4.72451 31.9952 4.58403 32.0089 4.45098 31.9855C4.24711 31.9489 4.04039 31.9392 3.83595 31.8969C3.60925 31.8501 3.39111 31.7805 3.17525 31.7051C2.99936 31.6434 2.82691 31.5657 2.66473 31.4698C2.48942 31.3659 2.31011 31.2699 2.14793 31.1449C1.94635 30.9895 1.75048 30.8279 1.57516 30.6435C1.42155 30.4825 1.27879 30.3123 1.14859 30.1324C1.05151 29.9982 0.972703 29.8514 0.886474 29.7098C0.744854 29.4774 0.655199 29.2227 0.562688 28.972C0.491307 28.779 0.450762 28.5706 0.407934 28.365C0.328557 27.9841 0.361678 27.6044 0.353113 27.2235C0.348544 27.0179 0.401081 26.8192 0.439341 26.6221C0.494733 26.3355 0.59067 26.0551 0.717443 25.7896C0.825943 25.5623 0.961282 25.3504 1.09262 25.1357C1.32447 24.7582 1.64426 24.4687 1.96633 24.178C2.12109 24.0381 2.29526 23.9262 2.474 23.8183C2.68586 23.6904 2.91314 23.5984 3.1387 23.5025C3.2295 23.4637 3.32943 23.4402 3.41909 23.4026C3.53958 23.3523 3.66692 23.3323 3.78856 23.306C3.98157 23.2644 4.17916 23.2312 4.3796 23.2198C5.37322 23.1633 6.36685 23.2187 7.09951 23.1976L7.09894 23.1998Z" fill="white"/>
</g>
<defs>
<filter id="filter0_d_17_597" x="0.27774" y="0.000854492" width="25.4445" height="33.9983" filterUnits="userSpaceOnUse" color-interpolation-filters="sRGB">
<feFlood flood-opacity="0" result="BackgroundImageFix"/>
<feColorMatrix in="SourceAlpha" type="matrix" values="0 0 0 0 0 0 0 0 0 0 0 0 0 0 0 0 0 0 127 0" result="hardAlpha"/>
<feOffset dx="2" dy="2"/>
<feComposite in2="hardAlpha" operator="out"/>
<feColorMatrix type="matrix" values="0 0 0 0 0.193571 0 0 0 0 0 0 0 0 0 0 0 0 0 0.25 0"/>
<feBlend mode="normal" in2="BackgroundImageFix" result="effect1_dropShadow_17_597"/>
<feBlend mode="normal" in="SourceGraphic" in2="effect1_dropShadow_17_597" result="shape"/>
</filter>
</defs>
</svg>
