<svg width="18" height="24" viewBox="0 0 18 24" fill="none" xmlns="http://www.w3.org/2000/svg">
<g clip-path="url(#clip0_1_147)">
<path d="M5.48929 8.68997C6.15656 8.68997 6.82341 8.68569 7.49068 8.69297C7.64315 8.69468 7.79691 8.71524 7.94938 8.74651C8.05045 8.76706 8.15153 8.79319 8.25346 8.81246C8.35282 8.83088 8.44748 8.87713 8.54341 8.91268C8.70102 8.97093 8.85435 9.03946 9.00082 9.12169C9.0989 9.17694 9.19184 9.24289 9.28392 9.30799C9.4047 9.39322 9.51563 9.48959 9.62398 9.59023C9.73234 9.69088 9.83427 9.79753 9.9255 9.91359C9.99317 9.99925 10.0574 10.0879 10.1174 10.1791C10.1863 10.2836 10.251 10.3898 10.2981 10.5085C10.3392 10.6117 10.394 10.7102 10.4322 10.8156C10.4587 10.8897 10.4908 10.9616 10.511 11.0387C10.5332 11.1239 10.5696 11.2057 10.6026 11.288C10.6412 11.3852 10.6797 11.4824 10.7234 11.5771C10.7602 11.6563 10.8005 11.7342 10.8463 11.8083C10.9487 11.9749 11.057 12.1373 11.1885 12.2833C11.3102 12.4187 11.4348 12.5489 11.5744 12.6675C11.6918 12.7673 11.8172 12.8542 11.9449 12.9365C12.0293 12.9908 12.1162 13.044 12.2096 13.0859C12.3153 13.1335 12.4181 13.1879 12.5291 13.2243C12.6044 13.2491 12.6832 13.2709 12.7535 13.3022C12.8469 13.3433 12.9334 13.3567 13.0392 13.3776C13.0469 13.3823 13.0576 13.3823 13.067 13.3832C13.2756 13.4003 13.4811 13.4427 13.6927 13.4384C14.0131 13.432 14.3334 13.4341 14.6538 13.4388C14.8508 13.4418 15.0465 13.4735 15.2371 13.5189C15.4286 13.5643 15.6166 13.6247 15.799 13.7069C15.9571 13.778 16.107 13.8628 16.2582 13.9446C16.4346 14.0402 16.5892 14.1695 16.7366 14.3061C16.8638 14.4243 16.9824 14.5502 17.0891 14.6864C17.1798 14.8025 17.2629 14.9237 17.3387 15.0513C17.406 15.1648 17.4694 15.2809 17.5268 15.3987C17.5585 15.4642 17.5786 15.5396 17.6034 15.6094C17.648 15.7353 17.6784 15.8647 17.7186 15.9914C17.7666 16.1413 17.7739 16.2964 17.7829 16.4501C17.8013 16.7512 17.7897 17.0523 17.7516 17.3517C17.7396 17.448 17.7054 17.538 17.6779 17.6296C17.6493 17.726 17.6128 17.8202 17.5812 17.9162C17.5525 18.0014 17.5083 18.0815 17.4668 18.162C17.4004 18.2905 17.3413 18.4237 17.2522 18.5389C17.1332 18.6931 17.0342 18.8623 16.8963 19.0027C16.707 19.1959 16.492 19.3578 16.2689 19.5077C16.1507 19.5873 16.0235 19.6567 15.8933 19.7154C15.8312 19.7432 15.7639 19.7677 15.6971 19.7891C15.5596 19.8332 15.4213 19.8756 15.2838 19.921C15.2517 19.9317 15.22 19.9364 15.1883 19.945C14.9669 20.0049 14.736 20.035 14.5127 20.035C14.375 20.035 14.2788 20.0251 14.1476 20.0251C14.0163 20.0251 13.8936 20.0143 13.7728 19.9839C13.6049 19.942 13.4306 19.921 13.2721 19.8413C13.2242 19.8173 13.1672 19.8053 13.1145 19.7878C13.0057 19.7518 12.9064 19.6978 12.8066 19.6443C12.667 19.5689 12.5308 19.4876 12.4023 19.3938C12.2759 19.3012 12.1586 19.1985 12.0455 19.0914C11.9029 18.9565 11.7654 18.8147 11.6588 18.6494C11.5641 18.5029 11.4763 18.3517 11.3992 18.1941C11.3354 18.0639 11.2686 17.9342 11.2129 17.8005C11.1864 17.7371 11.177 17.6652 11.1525 17.5984C11.1024 17.463 11.0536 17.3281 10.9958 17.1954C10.9307 17.0455 10.851 16.9058 10.7675 16.7671C10.7007 16.6557 10.6172 16.5576 10.5354 16.4574C10.4176 16.3131 10.29 16.1777 10.1495 16.0553C10.0917 16.0051 10.0356 15.9495 9.96961 15.9126C9.84755 15.845 9.74862 15.7447 9.62398 15.6818C9.53704 15.6377 9.44924 15.5953 9.3623 15.552C9.24966 15.4963 9.12931 15.4608 9.01624 15.4064C8.96271 15.3807 8.89846 15.3713 8.8415 15.3601C8.72586 15.3374 8.61237 15.304 8.49245 15.2929C7.56906 15.2072 6.64438 15.2736 5.72056 15.2646C4.91238 15.2569 4.10463 15.2796 3.29645 15.2642C3.18681 15.2621 3.07417 15.2633 2.96795 15.2394C2.84632 15.212 2.72297 15.1867 2.60262 15.1498C2.48142 15.1126 2.36278 15.068 2.24243 15.0278C2.19361 15.0115 2.14221 14.9901 2.10024 14.9528C2.05442 14.9126 1.98932 14.91 1.93578 14.8792C1.87496 14.8445 1.81586 14.8059 1.75633 14.77C1.49978 14.6158 1.27279 14.4222 1.07064 14.2025C0.906174 14.0239 0.75456 13.8324 0.638494 13.6187C0.545983 13.4483 0.466322 13.2701 0.401222 13.0851C0.358393 12.9634 0.330983 12.8379 0.285584 12.7176C0.282158 12.7086 0.280445 12.6992 0.278731 12.6898C0.218343 12.3386 0.185365 11.9835 0.226052 11.6297C0.246182 11.4529 0.269309 11.273 0.320275 11.1C0.378094 10.9034 0.447477 10.7106 0.539131 10.5278C0.62179 10.3633 0.728863 10.213 0.826941 10.0575C0.934013 9.88747 1.07706 9.75427 1.21283 9.61379C1.37301 9.44804 1.55246 9.30071 1.7499 9.18165C1.85226 9.11997 1.95505 9.0553 2.07112 9.01547C2.18504 8.9765 2.29254 8.91953 2.40304 8.87199C2.44544 8.85358 2.49127 8.83131 2.53324 8.82574C2.64631 8.81075 2.75467 8.77477 2.86559 8.75207C3.03905 8.71695 3.21422 8.71824 3.38768 8.69211C3.41123 8.68869 3.43522 8.68954 3.4592 8.68954C4.1359 8.68954 4.81259 8.68954 5.48929 8.68954V8.6904V8.68997Z" fill="white"/>
<path d="M5.43192 0.00172948C6.13988 0.00172948 6.84741 0.00344264 7.55537 1.63281e-05C7.73097 -0.000840249 7.90272 0.032138 8.07018 0.0676859C8.32886 0.122507 8.58327 0.20688 8.82011 0.328085C9.0077 0.424022 9.19101 0.526383 9.3589 0.659152C9.53107 0.795348 9.68611 0.946105 9.83558 1.105C9.99319 1.27289 10.1183 1.46476 10.2382 1.65878C10.3114 1.77741 10.3555 1.91404 10.4078 2.04467C10.4557 2.16373 10.4977 2.28494 10.5418 2.40528C10.5859 2.52606 10.6236 2.64984 10.6737 2.76804C10.7517 2.95092 10.8506 3.12224 10.962 3.28799C11.0789 3.46273 11.2117 3.62162 11.3581 3.77152C11.4772 3.89402 11.6061 4.00451 11.7428 4.10559C11.9004 4.22208 12.0695 4.32402 12.2464 4.40753C12.3552 4.45893 12.4674 4.50561 12.5818 4.54715C12.721 4.59769 12.8636 4.63281 13.0058 4.66665C13.1364 4.69748 13.2726 4.7129 13.4075 4.72832C13.7459 4.76687 14.0846 4.74502 14.423 4.74374C14.6842 4.74246 14.9433 4.76001 15.1969 4.81012C15.3948 4.8491 15.5922 4.9052 15.7764 4.99857C15.85 5.03583 15.9297 5.06281 16.0038 5.10222C16.1408 5.17545 16.2805 5.24398 16.4068 5.33435C16.5786 5.4577 16.737 5.59775 16.8809 5.75279C16.982 5.86157 17.0767 5.97507 17.1679 6.09285C17.3195 6.28858 17.427 6.507 17.5332 6.72586C17.5846 6.83207 17.6232 6.94857 17.6501 7.06806C17.6668 7.14173 17.6942 7.21625 17.7165 7.29034C17.7713 7.47065 17.7786 7.65653 17.7855 7.84198C17.7953 8.10238 17.7966 8.36449 17.7495 8.62146C17.7264 8.74824 17.6994 8.8763 17.6531 8.99964C17.6291 9.06389 17.6069 9.13113 17.5837 9.19665C17.5469 9.30201 17.5024 9.40566 17.4454 9.50331C17.4004 9.57997 17.361 9.66006 17.3229 9.74058C17.2904 9.80954 17.2385 9.86479 17.1949 9.92475C17.0861 10.0755 16.958 10.2108 16.8308 10.3475C16.698 10.4892 16.5447 10.6023 16.3923 10.7188C16.2372 10.8374 16.0642 10.9295 15.8894 11.0113C15.7246 11.0888 15.5494 11.1484 15.3716 11.1976C15.1104 11.27 14.8444 11.2841 14.5767 11.3038C14.4371 11.3141 14.2873 11.324 14.1583 11.324C13.9715 11.3261 13.8255 11.2923 13.6606 11.2542C13.5364 11.2255 13.4118 11.2002 13.2919 11.1578C13.169 11.1141 13.046 11.0691 12.9265 11.0165C12.8503 10.9826 12.7801 10.9355 12.709 10.8914C12.6096 10.8293 12.5111 10.7655 12.4147 10.6991C12.2391 10.5779 12.0871 10.4327 11.9359 10.2845C11.8001 10.1509 11.6858 10.0006 11.5843 9.84123C11.5166 9.73501 11.4639 9.6198 11.404 9.50845C11.3513 9.41037 11.3115 9.3063 11.2644 9.20565C11.2408 9.15511 11.2241 9.10072 11.2061 9.05018C11.1453 8.87844 11.093 8.70284 11.0159 8.53795C10.9624 8.42274 10.9067 8.30838 10.8344 8.20046C10.7534 8.08053 10.6943 7.94434 10.5996 7.83213C10.4643 7.67152 10.3243 7.51605 10.1701 7.37257C10.0536 7.26422 9.92381 7.17171 9.79233 7.08519C9.68311 7.01367 9.56662 6.95028 9.44755 6.89246C9.29423 6.81794 9.13362 6.76226 8.97515 6.7023C8.90277 6.67489 8.82439 6.65476 8.74687 6.6372C8.53744 6.59009 8.32458 6.56311 8.11258 6.5584C7.66073 6.54812 7.20889 6.55668 6.75705 6.55797C6.30263 6.55925 5.84822 6.5494 5.39423 6.56568C4.72567 6.58966 4.05669 6.58067 3.38813 6.5811C3.20011 6.5811 3.01466 6.53955 2.82878 6.51C2.65447 6.48259 2.48958 6.42734 2.32769 6.36481C2.13538 6.29072 1.94694 6.20592 1.77477 6.08814C1.71009 6.04402 1.64071 6.00591 1.57732 5.95922C1.35504 5.79562 1.15675 5.60546 0.970012 5.4033C0.898916 5.32621 0.85052 5.22899 0.786276 5.14547C0.711326 5.04782 0.655648 4.93818 0.591405 4.83411C0.529731 4.73475 0.49504 4.61868 0.448357 4.50989C0.409811 4.41953 0.38754 4.32316 0.352848 4.23279C0.286892 4.06062 0.275328 3.8786 0.232499 3.703C0.220079 3.65246 0.218366 3.59892 0.217509 3.54624C0.21494 3.39078 0.210657 3.23531 0.215368 3.07984C0.221792 2.87769 0.261623 2.68067 0.304024 2.4828C0.32244 2.39758 0.351992 2.3162 0.372121 2.23183C0.397819 2.12261 0.451783 2.01897 0.50018 1.91575C0.558427 1.79069 0.619672 1.66692 0.695479 1.55128C0.843239 1.32643 1.00385 1.11314 1.20086 0.927689C1.2968 0.83732 1.3923 0.747808 1.49552 0.666005C1.5966 0.585915 1.70496 0.516961 1.81545 0.449719C1.92767 0.381621 2.04245 0.319091 2.16408 0.270695C2.28186 0.223583 2.40178 0.182895 2.52213 0.143065C2.67503 0.0929549 2.83178 0.063403 2.99068 0.0364208C3.1016 0.0175762 3.21082 0.00215777 3.32217 0.00215777C4.02499 0.000444617 4.72824 0.00130119 5.43106 0.00130119L5.43192 0.00172948Z" fill="white"/>
<path d="M5.32399 17.3992C6.18484 17.3992 6.84955 17.3988 7.51425 17.3992C7.66972 17.3992 7.82091 17.4348 7.97423 17.4553C8.07617 17.469 8.17382 17.4969 8.27275 17.5183C8.38111 17.5414 8.48904 17.5753 8.58968 17.6258C8.67149 17.6669 8.75586 17.7007 8.84066 17.7346C8.92161 17.7671 9.0017 17.8095 9.07836 17.8571C9.191 17.9269 9.29807 18.0027 9.40472 18.0798C9.52678 18.168 9.6467 18.2571 9.74821 18.3723C9.87112 18.5124 9.9979 18.6494 10.108 18.7993C10.1769 18.8935 10.2322 18.9985 10.2883 19.1017C10.3427 19.2015 10.3906 19.3047 10.4403 19.407C10.4634 19.455 10.4767 19.5073 10.4943 19.5569C10.5461 19.703 10.5881 19.8533 10.6219 20.0045C10.6819 20.2726 10.7247 20.5446 10.7003 20.8195C10.6802 21.0508 10.6605 21.2842 10.5928 21.5078C10.5315 21.7095 10.4617 21.9083 10.3769 22.1027C10.272 22.3447 10.126 22.5605 9.96363 22.7605C9.80902 22.9511 9.63342 23.1276 9.43042 23.2749C9.32206 23.3537 9.21199 23.4308 9.10277 23.5079C8.99485 23.5837 8.8685 23.6334 8.74858 23.6908C8.55628 23.7829 8.35113 23.842 8.14598 23.8947C8.06503 23.9152 7.98151 23.9379 7.89671 23.9456C7.33651 23.9966 6.77503 23.9863 6.21397 23.988C5.35782 23.9906 4.5021 23.9936 3.64595 23.9957C3.54316 23.9957 3.4378 24.006 3.33801 23.9884C3.18511 23.961 3.03007 23.9538 2.87674 23.9221C2.70671 23.8869 2.54311 23.8347 2.38121 23.7782C2.2493 23.7319 2.11996 23.6737 1.99833 23.6017C1.86684 23.5238 1.73236 23.4518 1.61072 23.358C1.45954 23.2415 1.31264 23.1203 1.18115 22.982C1.06594 22.8612 0.958869 22.7336 0.861219 22.5987C0.78841 22.498 0.729306 22.3879 0.664635 22.2817C0.558419 22.1074 0.491178 21.9164 0.421795 21.7284C0.368259 21.5836 0.337851 21.4273 0.305729 21.2731C0.246197 20.9874 0.271038 20.7026 0.264613 20.417C0.261187 20.2628 0.30059 20.1137 0.329285 19.966C0.370829 19.751 0.442781 19.5407 0.537861 19.3415C0.619236 19.1711 0.720741 19.0122 0.819247 18.8511C0.993132 18.568 1.23297 18.3509 1.47453 18.1329C1.59059 18.028 1.72122 17.944 1.85528 17.8631C2.01417 17.7671 2.18463 17.6982 2.3538 17.6262C2.4219 17.5971 2.49685 17.5795 2.56409 17.5513C2.65446 17.5136 2.74997 17.4986 2.8412 17.4789C2.98596 17.4476 3.13415 17.4228 3.28448 17.4142C4.0297 17.3718 4.77492 17.4134 5.32441 17.3975L5.32399 17.3992Z" fill="white"/>
</g>
<defs>
<clipPath id="clip0_1_147">
<rect width="17.583" height="24" fill="white" transform="translate(0.208496)"/>
</clipPath>
</defs>
</svg>
